<svg width="1193" height="731" viewBox="0 0 1193 731" fill="none" xmlns="http://www.w3.org/2000/svg">
<g filter="url(#filter0_d)">
<line x1="95.5154" y1="-95.5154" x2="698.285" y2="-95.5154" transform="matrix(0.866044 0.499967 -0.866044 0.499967 312.877 127.324)" stroke="white" stroke-width="191.031" stroke-linecap="round"/>
<line x1="95.5154" y1="-95.5154" x2="698.285" y2="-95.5154" transform="matrix(0.866044 0.499967 -0.866044 0.499967 27.0004 292.361)" stroke="white" stroke-width="191.031" stroke-linecap="round"/>
<path fill-rule="evenodd" clip-rule="evenodd" d="M439.367 100.146C473.808 80.2627 529.713 80.2627 564.154 100.146C598.596 120.029 598.596 152.303 564.154 172.186C529.713 192.069 473.808 192.069 439.367 172.186C404.925 152.303 404.925 120.029 439.367 100.146ZM526.718 150.574L517.359 112.753L461.205 145.171L526.718 150.574Z" fill="#FF0000" fill-opacity="0.41"/>
<path fill-rule="evenodd" clip-rule="evenodd" d="M725.811 193.47C691.369 173.587 635.464 173.587 601.023 193.47C566.582 213.353 566.582 245.627 601.023 265.51C635.464 285.393 691.369 285.393 725.811 265.51C760.252 245.627 760.252 213.353 725.811 193.47ZM632.22 240.296L619.741 233.092L669.656 204.276L682.135 211.48L632.22 240.296ZM644.699 247.5L657.177 254.704L707.092 225.888L694.614 218.684L644.699 247.5Z" fill="#FF0000" fill-opacity="0.41"/>
<path fill-rule="evenodd" clip-rule="evenodd" d="M760.978 287.777C795.42 267.894 851.324 267.894 885.766 287.777C920.207 307.66 920.207 339.934 885.766 359.817C851.324 379.7 795.42 379.7 760.978 359.817C726.537 339.934 726.537 307.66 760.978 287.777ZM848.33 338.205L838.971 300.384L782.816 332.802L848.33 338.205Z" fill="#FF0000" fill-opacity="0.41"/>
<path fill-rule="evenodd" clip-rule="evenodd" d="M1047.42 381.101C1012.98 361.218 957.076 361.218 922.635 381.101C888.193 400.984 888.193 433.258 922.635 453.141C957.076 473.024 1012.98 473.024 1047.42 453.141C1081.86 433.258 1081.86 400.984 1047.42 381.101ZM953.832 427.927L941.353 420.723L991.268 391.907L1003.75 399.111L953.832 427.927ZM966.31 435.131L978.789 442.335L1028.7 413.519L1016.23 406.315L966.31 435.131Z" fill="#FF0000" fill-opacity="0.41"/>
<path fill-rule="evenodd" clip-rule="evenodd" d="M144.981 262.236C179.422 242.353 235.327 242.353 269.768 262.236C304.21 282.119 304.21 314.392 269.768 334.275C235.327 354.158 179.422 354.158 144.981 334.275C110.539 314.392 110.539 282.119 144.981 262.236ZM232.332 312.664L222.973 274.843L166.819 307.261L232.332 312.664Z" fill="#FF0000" fill-opacity="0.41"/>
<path fill-rule="evenodd" clip-rule="evenodd" d="M431.426 355.56C396.984 335.677 341.079 335.677 306.638 355.56C272.197 375.443 272.197 407.717 306.638 427.6C341.079 447.483 396.984 447.483 431.426 427.6C465.867 407.717 465.867 375.443 431.426 355.56ZM337.835 402.386L325.356 395.182L375.271 366.366L387.75 373.57L337.835 402.386ZM350.314 409.59L362.792 416.794L412.707 387.978L400.229 380.774L350.314 409.59Z" fill="#FF0000" fill-opacity="0.41"/>
<path fill-rule="evenodd" clip-rule="evenodd" d="M466.593 449.867C501.034 429.984 556.939 429.984 591.38 449.867C625.822 469.75 625.822 502.024 591.38 521.907C556.939 541.79 501.034 541.79 466.593 521.907C432.151 502.024 432.151 469.75 466.593 449.867ZM553.944 500.295L544.585 462.474L488.431 494.892L553.944 500.295Z" fill="#FF0000" fill-opacity="0.41"/>
<path fill-rule="evenodd" clip-rule="evenodd" d="M753.037 543.191C718.596 523.308 662.691 523.308 628.25 543.191C593.808 563.074 593.808 595.348 628.25 615.231C662.691 635.114 718.596 635.114 753.037 615.231C787.479 595.348 787.479 563.074 753.037 543.191ZM659.447 590.017L646.968 582.813L696.883 553.997L709.362 561.201L659.447 590.017ZM671.925 597.221L684.404 604.425L734.319 575.609L721.84 568.405L671.925 597.221Z" fill="#FF0000" fill-opacity="0.41"/>
</g>
<defs>
<filter id="filter0_d" x="-30.3092" y="-15.668" width="1249.62" height="769.854" filterUnits="userSpaceOnUse" color-interpolation-filters="sRGB">
<feFlood flood-opacity="0" result="BackgroundImageFix"/>
<feColorMatrix in="SourceAlpha" type="matrix" values="0 0 0 0 0 0 0 0 0 0 0 0 0 0 0 0 0 0 127 0"/>
<feOffset dy="7.64123"/>
<feGaussianBlur stdDeviation="28.6546"/>
<feColorMatrix type="matrix" values="0 0 0 0 0 0 0 0 0 0 0 0 0 0 0 0 0 0 0.15 0"/>
<feBlend mode="normal" in2="BackgroundImageFix" result="effect1_dropShadow"/>
<feBlend mode="normal" in="SourceGraphic" in2="effect1_dropShadow" result="shape"/>
</filter>
</defs>
</svg>
