<svg width="1084" height="564" viewBox="0 0 1084 564" fill="none" xmlns="http://www.w3.org/2000/svg">
<path d="M695.175 150.383C695.175 80.5836 631.872 24 553.783 24C475.695 24 412.392 80.5836 412.392 150.383" stroke="#7A7A7A" stroke-width="47.1489"/>
<path d="M157.884 360.946L215.9 370.684C208.441 391.957 196.63 408.187 180.469 419.376C164.446 430.426 144.348 435.951 120.175 435.951C81.9121 435.951 53.5951 423.451 35.2236 398.449C20.7197 378.42 13.4678 353.142 13.4678 322.614C13.4678 286.148 22.9989 257.624 42.0611 237.042C61.1232 216.322 85.2272 205.962 114.373 205.962C147.11 205.962 172.941 216.806 191.865 238.492C210.789 260.041 219.837 293.123 219.008 337.74H73.1407C73.5551 355.006 78.2516 368.474 87.2301 378.143C96.2087 387.674 107.397 392.44 120.796 392.44C129.913 392.44 137.579 389.954 143.795 384.981C150.011 380.008 154.707 371.997 157.884 360.946ZM161.2 302.102C160.785 285.25 156.434 272.473 148.146 263.77C139.858 254.93 129.775 250.51 117.895 250.51C105.187 250.51 94.6892 255.137 86.4013 264.392C78.1134 273.647 74.0386 286.217 74.1767 302.102H161.2ZM410.458 514.687V404.043C402.861 413.85 393.399 421.655 382.072 427.456C370.745 433.12 358.521 435.951 345.398 435.951C320.396 435.951 299.815 426.559 283.653 407.773C264.591 385.81 255.06 356.042 255.06 318.471C255.06 283.109 263.97 255.552 281.789 235.799C299.746 215.908 321.985 205.962 348.506 205.962C363.148 205.962 375.787 209.07 386.423 215.286C397.198 221.502 406.729 230.895 415.017 243.465V210.935H468.681V514.687H410.458ZM412.323 318.263C412.323 295.748 407.696 279.034 398.441 268.122C389.324 257.071 377.859 251.546 364.046 251.546C349.957 251.546 338.146 257.14 328.615 268.329C319.222 279.517 314.526 297.267 314.526 321.579C314.526 345.752 319.084 363.225 328.201 373.999C337.317 384.636 348.575 389.954 361.974 389.954C375.373 389.954 387.114 383.945 397.198 371.927C407.281 359.91 412.323 342.022 412.323 318.263Z" fill="#58C88C"/>
<path d="M646.209 368.198L704.638 359.288C707.125 370.615 712.167 379.248 719.764 385.188C727.361 390.99 737.997 393.89 751.672 393.89C766.729 393.89 778.055 391.128 785.653 385.603C790.763 381.735 793.319 376.555 793.319 370.063C793.319 365.642 791.938 361.982 789.175 359.081C786.274 356.319 779.782 353.763 769.698 351.415C722.734 341.055 692.966 331.593 680.396 323.029C662.992 311.15 654.289 294.643 654.289 273.509C654.289 254.447 661.818 238.423 676.874 225.439C691.93 212.455 715.274 205.962 746.907 205.962C777.019 205.962 799.397 210.866 814.039 220.673C828.681 230.481 838.764 244.985 844.289 264.185L789.382 274.337C787.034 265.773 782.545 259.212 775.914 254.654C769.422 250.095 760.098 247.816 747.943 247.816C732.61 247.816 721.629 249.957 714.998 254.239C710.578 257.278 708.368 261.215 708.368 266.05C708.368 270.194 710.302 273.716 714.169 276.617C719.418 280.484 737.514 285.941 768.455 292.985C799.535 300.03 821.221 308.663 833.515 318.885C845.671 329.245 851.749 343.68 851.749 362.189C851.749 382.356 843.323 399.692 826.47 414.196C809.618 428.7 784.686 435.951 751.672 435.951C721.698 435.951 697.939 429.874 680.396 417.718C662.992 405.563 651.596 389.056 646.209 368.198ZM958.662 430.979H900.44V210.935H954.518V242.222C963.773 227.442 972.061 217.704 979.382 213.007C986.841 208.311 995.267 205.962 1004.66 205.962C1017.92 205.962 1030.7 209.623 1042.99 216.944L1024.97 267.707C1015.16 261.353 1006.04 258.176 997.616 258.176C989.466 258.176 982.559 260.455 976.896 265.014C971.232 269.434 966.743 277.515 963.428 289.256C960.251 300.997 958.662 325.584 958.662 363.018V430.979Z" fill="#58C88C"/>
<path d="M531.078 430.979V127.227H589.3V430.979H531.078Z" fill="#58C88C"/>
</svg>
