<svg width="1217" height="479" viewBox="0 0 1217 479" fill="none" xmlns="http://www.w3.org/2000/svg">
<line x1="5" y1="-5" x2="67.3553" y2="-5" transform="matrix(0.850798 0.525493 -0.850798 0.525493 311.42 333.147)" stroke="#CBB3FF" stroke-opacity="0.31" stroke-width="10" stroke-linecap="round" stroke-dasharray="1 20"/>
<line x1="5" y1="-5" x2="54.0148" y2="-5" transform="matrix(0.872843 -0.488002 0.511903 0.859043 678.364 182.18)" stroke="#CBB3FF" stroke-opacity="0.31" stroke-width="10" stroke-linecap="round" stroke-dasharray="1 20"/>
<line x1="5" y1="-5" x2="54.0148" y2="-5" transform="matrix(0.872843 -0.488002 0.511903 0.859043 875.115 366.859)" stroke="#CBB3FF" stroke-opacity="0.31" stroke-width="10" stroke-linecap="round" stroke-dasharray="1 20"/>
<line x1="5" y1="-5" x2="54.0148" y2="-5" transform="matrix(0.872843 -0.488002 0.511903 0.859043 311.42 190.63)" stroke="#CBB3FF" stroke-opacity="0.31" stroke-width="10" stroke-linecap="round" stroke-dasharray="1 20"/>
<line x1="5" y1="-5" x2="28.7212" y2="-5" transform="matrix(0.859083 -0.511837 0.488069 0.872805 502.135 370.978)" stroke="#CBB3FF" stroke-opacity="0.31" stroke-width="10" stroke-linecap="round" stroke-dasharray="1 20"/>
<line x1="5" y1="-5" x2="51.7493" y2="-5" transform="matrix(0.850798 0.525493 -0.850798 0.525493 702.506 331.94)" stroke="#CBB3FF" stroke-opacity="0.31" stroke-width="10" stroke-linecap="round" stroke-dasharray="1 20"/>
<line x1="5" y1="-5" x2="51.7493" y2="-5" transform="matrix(0.850798 0.525493 -0.850798 0.525493 857.009 152.089)" stroke="#CBB3FF" stroke-opacity="0.31" stroke-width="10" stroke-linecap="round" stroke-dasharray="1 20"/>
<line x1="5" y1="-5" x2="51.7493" y2="-5" transform="matrix(0.850798 0.525493 -0.850798 0.525493 471.958 150.882)" stroke="#CBB3FF" stroke-opacity="0.31" stroke-width="10" stroke-linecap="round" stroke-dasharray="1 20"/>
</svg>
