<svg width="1217" height="479" viewBox="0 0 1217 479" fill="none" xmlns="http://www.w3.org/2000/svg">
<g filter="url(#filter0_d)">
<rect width="240.47" height="240.47" rx="36" transform="matrix(0.866044 0.499967 -0.866044 0.499967 1009.74 133.983)" fill="url(#paint0_linear)"/>
</g>
<path fill-rule="evenodd" clip-rule="evenodd" d="M1025 207.662C1027.63 206.141 1027.63 203.652 1025 202.13C1022.36 200.609 1018.05 200.609 1015.42 202.13L996.251 213.194L986.668 207.662L938.756 235.322C932.527 238.918 931.282 244.284 934.827 248.654L914.8 260.216L924.382 265.748L944.41 254.186C951.98 256.233 961.275 255.514 967.503 251.918L1015.42 224.258L1005.83 218.726L1025 207.662ZM948.338 246.386C945.703 244.865 945.703 242.376 948.338 240.854L957.921 235.322L967.503 240.854L957.921 246.386C955.286 247.908 950.974 247.908 948.338 246.386ZM986.668 218.726L967.503 229.79L977.086 235.322L996.251 224.258L986.668 218.726ZM1063.33 229.79C1065.96 228.269 1065.96 225.78 1063.33 224.258C1060.69 222.737 1056.38 222.737 1053.75 224.258L1034.58 235.322L1025 229.79L977.086 257.45C970.857 261.046 969.611 266.412 973.157 270.782L953.13 282.344L962.712 287.876L982.739 276.314C990.31 278.361 999.605 277.642 1005.83 274.046L1053.75 246.386L1044.16 240.854L1063.33 229.79ZM986.668 262.982C984.033 264.503 984.033 266.993 986.668 268.514C989.303 270.035 993.616 270.035 996.251 268.514L1005.83 262.982L996.251 257.45L986.668 262.982ZM1005.83 251.918L1025 240.854L1034.58 246.386L1015.42 257.45L1005.83 251.918ZM1101.66 251.918L1082.49 262.982L1092.08 268.514L1044.16 296.174C1037.93 299.77 1028.64 300.489 1021.07 298.442L1001.04 310.004L991.46 304.472L1011.49 292.91C1007.94 288.54 1009.19 283.174 1015.42 279.578L1063.33 251.918L1072.91 257.45L1092.08 246.386C1094.71 244.865 1099.02 244.865 1101.66 246.386C1104.29 247.908 1104.29 250.397 1101.66 251.918ZM1025 290.642C1022.36 289.121 1022.36 286.631 1025 285.11L1034.58 279.578L1044.16 285.11L1034.58 290.642C1031.95 292.163 1027.63 292.163 1025 290.642ZM1063.33 262.982L1044.16 274.046L1053.75 279.578L1072.91 268.514L1063.33 262.982Z" fill="white" fill-opacity="0.91"/>
<defs>
<filter id="filter0_d" x="799.748" y="128.526" width="419.989" height="259.368" filterUnits="userSpaceOnUse" color-interpolation-filters="sRGB">
<feFlood flood-opacity="0" result="BackgroundImageFix"/>
<feColorMatrix in="SourceAlpha" type="matrix" values="0 0 0 0 0 0 0 0 0 0 0 0 0 0 0 0 0 0 127 0"/>
<feOffset dy="4"/>
<feGaussianBlur stdDeviation="10"/>
<feColorMatrix type="matrix" values="0 0 0 0 0 0 0 0 0 0 0 0 0 0 0 0 0 0 0.15 0"/>
<feBlend mode="normal" in2="BackgroundImageFix" result="effect1_dropShadow"/>
<feBlend mode="normal" in="SourceGraphic" in2="effect1_dropShadow" result="shape"/>
</filter>
<linearGradient id="paint0_linear" x1="120.235" y1="0" x2="120.235" y2="240.47" gradientUnits="userSpaceOnUse">
<stop stop-color="#30F38A" stop-opacity="0.49"/>
<stop offset="1" stop-color="#2AF286" stop-opacity="0.46"/>
</linearGradient>
</defs>
</svg>
