<svg width="1217" height="483" viewBox="0 0 1217 483" fill="none" xmlns="http://www.w3.org/2000/svg">
<g filter="url(#filter0_d)">
<rect width="138.422" height="138.422" rx="36" transform="matrix(0.866044 0.499967 -0.866044 0.499967 443.371 340.389)" fill="url(#paint0_linear)" fill-opacity="0.46"/>
</g>
<path fill-rule="evenodd" clip-rule="evenodd" d="M488.658 406.366L449.498 383.759C446.421 381.983 441.386 381.983 438.309 383.759L399.148 406.366C396.071 408.143 396.071 411.049 399.148 412.826L438.309 435.433C441.386 437.209 446.421 437.209 449.498 435.433L488.658 412.826C491.735 411.049 491.735 408.143 488.658 406.366ZM443.903 432.203L404.743 409.596L443.903 386.988L483.064 409.596L443.903 432.203ZM441.106 401.522L435.512 398.292L415.931 409.596L421.526 412.826L441.106 401.522ZM455.092 399.907L460.686 403.137L432.715 419.285L427.12 416.055L455.092 399.907ZM455.092 419.285L449.498 416.055L438.309 422.514L443.903 425.744L455.092 419.285Z" fill="white" fill-opacity="0.91"/>
<defs>
<filter id="filter0_d" x="331.755" y="344.933" width="223.233" height="137.326" filterUnits="userSpaceOnUse" color-interpolation-filters="sRGB">
<feFlood flood-opacity="0" result="BackgroundImageFix"/>
<feColorMatrix in="SourceAlpha" type="matrix" values="0 0 0 0 0 0 0 0 0 0 0 0 0 0 0 0 0 0 127 0"/>
<feOffset dy="4"/>
<feGaussianBlur stdDeviation="5"/>
<feColorMatrix type="matrix" values="0 0 0 0 0 0 0 0 0 0 0 0 0 0 0 0 0 0 0.15 0"/>
<feBlend mode="normal" in2="BackgroundImageFix" result="effect1_dropShadow"/>
<feBlend mode="normal" in="SourceGraphic" in2="effect1_dropShadow" result="shape"/>
</filter>
<linearGradient id="paint0_linear" x1="69.2111" y1="0" x2="69.2111" y2="138.422" gradientUnits="userSpaceOnUse">
<stop stop-color="#30F38A"/>
<stop offset="1" stop-color="#2AF286" stop-opacity="0.92"/>
</linearGradient>
</defs>
</svg>
