<svg width="1217" height="479" viewBox="0 0 1217 479" fill="none" xmlns="http://www.w3.org/2000/svg">
<g filter="url(#filter0_d)">
<rect width="240.47" height="240.47" rx="36" transform="matrix(0.866044 0.499967 -0.866044 0.499967 208.258 141.225)" fill="url(#paint0_linear)"/>
</g>
<path fill-rule="evenodd" clip-rule="evenodd" d="M257.819 245.981L269.54 239.214C287.18 255.376 283.823 276.957 259.469 291.017C235.115 305.076 197.731 307.014 169.736 296.831L181.458 290.064C202.795 296.732 230.051 294.86 248.089 284.447C266.126 274.034 269.37 258.299 257.819 245.981ZM139.977 241.743L174.117 222.034L196.878 235.173L253.779 235.173L162.737 287.732L162.737 254.883L139.977 241.743ZM178.84 265.296L214.915 244.47L190.22 244.47L174.117 235.173L162.737 241.743L178.84 251.04L178.84 265.296ZM233.863 276.235C243.935 270.42 246.78 262.077 242.569 254.784L196.764 281.228C209.339 283.691 223.792 282.049 233.863 276.235Z" fill="white" fill-opacity="0.91"/>
<defs>
<filter id="filter0_d" x="-1.73682" y="135.769" width="419.989" height="259.368" filterUnits="userSpaceOnUse" color-interpolation-filters="sRGB">
<feFlood flood-opacity="0" result="BackgroundImageFix"/>
<feColorMatrix in="SourceAlpha" type="matrix" values="0 0 0 0 0 0 0 0 0 0 0 0 0 0 0 0 0 0 127 0"/>
<feOffset dy="4"/>
<feGaussianBlur stdDeviation="10"/>
<feColorMatrix type="matrix" values="0 0 0 0 0 0 0 0 0 0 0 0 0 0 0 0 0 0 0.15 0"/>
<feBlend mode="normal" in2="BackgroundImageFix" result="effect1_dropShadow"/>
<feBlend mode="normal" in="SourceGraphic" in2="effect1_dropShadow" result="shape"/>
</filter>
<linearGradient id="paint0_linear" x1="120.235" y1="0" x2="120.235" y2="240.47" gradientUnits="userSpaceOnUse">
<stop stop-color="#30F38A" stop-opacity="0.49"/>
<stop offset="1" stop-color="#2AF286" stop-opacity="0.46"/>
</linearGradient>
</defs>
</svg>
