<svg width="1217" height="479" viewBox="0 0 1217 479" fill="none" xmlns="http://www.w3.org/2000/svg">
<g filter="url(#filter0_d)">
<rect width="127.24" height="127.24" rx="36" transform="matrix(0.866044 0.499967 -0.866044 0.499967 419.201 45.8682)" fill="url(#paint0_linear)" fill-opacity="0.46"/>
</g>
<path fill-rule="evenodd" clip-rule="evenodd" d="M419.487 89.9045C417.175 88.5697 413.413 88.5819 411.1 89.9166L373.246 111.746L390.061 111.746L419.487 128.734C421.799 130.068 425.582 130.068 427.894 128.734L453.117 114.173C455.429 112.838 455.429 110.654 453.117 109.319L419.487 89.9045ZM415.283 92.3313L448.913 111.746L423.691 126.307L392.52 108.312H387.602L415.283 92.3313ZM419.487 114.173L402.672 104.465L398.468 106.892L415.283 116.6L419.487 114.173ZM408.978 100.825L434.2 115.386L429.996 117.813L404.774 103.252L408.978 100.825ZM440.506 111.746L415.283 97.185L411.079 99.6118L436.302 114.173L440.506 111.746Z" fill="white" fill-opacity="0.91"/>
<defs>
<filter id="filter0_d" x="317.27" y="50.4116" width="203.864" height="126.145" filterUnits="userSpaceOnUse" color-interpolation-filters="sRGB">
<feFlood flood-opacity="0" result="BackgroundImageFix"/>
<feColorMatrix in="SourceAlpha" type="matrix" values="0 0 0 0 0 0 0 0 0 0 0 0 0 0 0 0 0 0 127 0"/>
<feOffset dy="4"/>
<feGaussianBlur stdDeviation="5"/>
<feColorMatrix type="matrix" values="0 0 0 0 0 0 0 0 0 0 0 0 0 0 0 0 0 0 0.15 0"/>
<feBlend mode="normal" in2="BackgroundImageFix" result="effect1_dropShadow"/>
<feBlend mode="normal" in="SourceGraphic" in2="effect1_dropShadow" result="shape"/>
</filter>
<linearGradient id="paint0_linear" x1="63.6199" y1="0" x2="63.6199" y2="127.24" gradientUnits="userSpaceOnUse">
<stop stop-color="#30F38A"/>
<stop offset="1" stop-color="#2AF286" stop-opacity="0.92"/>
</linearGradient>
</defs>
</svg>
