<svg width="1217" height="479" viewBox="0 0 1217 479" fill="none" xmlns="http://www.w3.org/2000/svg">
<g filter="url(#filter0_d)">
<rect width="133.757" height="133.757" rx="36" transform="matrix(0.866044 0.499967 -0.866044 0.499967 818.346 335.561)" fill="url(#paint0_linear)" fill-opacity="0.46"/>
</g>
<path d="M821.894 401.459C817.894 397.528 817.608 395.686 819.87 394.38C822.465 392.881 826.68 393.225 830.704 395.548C834.943 397.995 834.49 400.071 831.657 401.872L836.919 404.909C840.848 402.449 842.11 398.834 838.348 395.26L843.562 392.249L836.419 388.125L831.276 391.094C825.656 389.005 818.941 388.593 814.346 391.246C808.845 394.421 810.655 398.627 815.703 403.384C820.227 407.645 819.322 409.542 817.108 410.82C815.465 411.769 811.679 412.607 806.416 409.569C801.511 406.738 801.773 404.36 804.321 402.586L799.083 399.562C794.154 402.738 795.13 406.683 798.725 409.886L793.558 412.869L800.702 416.992L805.821 414.037C811.345 416.209 817.727 416.786 822.608 413.968C829.371 410.064 825.894 405.391 821.894 401.459Z" fill="white" fill-opacity="0.91"/>
<defs>
<filter id="filter0_d" x="710.77" y="340.104" width="215.152" height="132.661" filterUnits="userSpaceOnUse" color-interpolation-filters="sRGB">
<feFlood flood-opacity="0" result="BackgroundImageFix"/>
<feColorMatrix in="SourceAlpha" type="matrix" values="0 0 0 0 0 0 0 0 0 0 0 0 0 0 0 0 0 0 127 0"/>
<feOffset dy="4"/>
<feGaussianBlur stdDeviation="5"/>
<feColorMatrix type="matrix" values="0 0 0 0 0 0 0 0 0 0 0 0 0 0 0 0 0 0 0.15 0"/>
<feBlend mode="normal" in2="BackgroundImageFix" result="effect1_dropShadow"/>
<feBlend mode="normal" in="SourceGraphic" in2="effect1_dropShadow" result="shape"/>
</filter>
<linearGradient id="paint0_linear" x1="66.8784" y1="0" x2="66.8784" y2="133.757" gradientUnits="userSpaceOnUse">
<stop stop-color="#30F38A"/>
<stop offset="1" stop-color="#2AF286" stop-opacity="0.92"/>
</linearGradient>
</defs>
</svg>
